<mxfile host="app.diagrams.net" agent="Mozilla/5.0 (Windows NT 10.0; Win64; x64) AppleWebKit/537.36 (KHTML, like Gecko) Chrome/135.0.0.0 Safari/537.36" version="26.2.4">
  <diagram name="Page-1" id="V9YXr99vcI0l23Jaac8-">
    <mxGraphModel dx="1099" dy="697" grid="1" gridSize="10" guides="1" tooltips="1" connect="1" arrows="1" fold="1" page="1" pageScale="1" pageWidth="850" pageHeight="1100" math="0" shadow="0">
      <root>
        <mxCell id="0" />
        <mxCell id="1" parent="0" />
        <mxCell id="JyS4Pw6MhcOc_K2QIwF5-907" style="rounded=0;orthogonalLoop=1;jettySize=auto;html=1;exitX=1;exitY=0.25;exitDx=0;exitDy=0;entryX=0;entryY=1;entryDx=0;entryDy=0;" parent="1" source="JyS4Pw6MhcOc_K2QIwF5-863" target="JyS4Pw6MhcOc_K2QIwF5-886" edge="1">
          <mxGeometry relative="1" as="geometry" />
        </mxCell>
        <mxCell id="JyS4Pw6MhcOc_K2QIwF5-910" style="rounded=0;orthogonalLoop=1;jettySize=auto;html=1;exitX=0.985;exitY=0.959;exitDx=0;exitDy=0;entryX=0.5;entryY=0;entryDx=0;entryDy=0;exitPerimeter=0;" parent="1" source="JyS4Pw6MhcOc_K2QIwF5-863" target="JyS4Pw6MhcOc_K2QIwF5-882" edge="1">
          <mxGeometry relative="1" as="geometry" />
        </mxCell>
        <mxCell id="JyS4Pw6MhcOc_K2QIwF5-863" value="admins" style="rounded=1;arcSize=10;whiteSpace=wrap;html=1;align=center;" parent="1" vertex="1">
          <mxGeometry x="400" y="359" width="100" height="40" as="geometry" />
        </mxCell>
        <mxCell id="JyS4Pw6MhcOc_K2QIwF5-880" value="admin_id" style="ellipse;whiteSpace=wrap;html=1;align=center;" parent="1" vertex="1">
          <mxGeometry x="357" y="289" width="100" height="40" as="geometry" />
        </mxCell>
        <mxCell id="JyS4Pw6MhcOc_K2QIwF5-882" value="createdBy" style="ellipse;whiteSpace=wrap;html=1;align=center;" parent="1" vertex="1">
          <mxGeometry x="509" y="419" width="100" height="40" as="geometry" />
        </mxCell>
        <mxCell id="JyS4Pw6MhcOc_K2QIwF5-884" value="role" style="ellipse;whiteSpace=wrap;html=1;align=center;" parent="1" vertex="1">
          <mxGeometry x="459" y="289" width="100" height="40" as="geometry" />
        </mxCell>
        <mxCell id="JyS4Pw6MhcOc_K2QIwF5-885" value="&lt;span style=&quot;border-bottom: 1px dotted&quot;&gt;adminname&lt;/span&gt;" style="ellipse;whiteSpace=wrap;html=1;align=center;strokeColor=default;" parent="1" vertex="1">
          <mxGeometry x="554" y="369" width="100" height="40" as="geometry" />
        </mxCell>
        <mxCell id="JyS4Pw6MhcOc_K2QIwF5-886" value="&lt;span style=&quot;border-bottom: 1px dotted&quot;&gt;email&lt;/span&gt;" style="ellipse;whiteSpace=wrap;html=1;align=center;fontStyle=0" parent="1" vertex="1">
          <mxGeometry x="549" y="319" width="90" height="40" as="geometry" />
        </mxCell>
        <mxCell id="JyS4Pw6MhcOc_K2QIwF5-887" style="edgeStyle=orthogonalEdgeStyle;rounded=0;orthogonalLoop=1;jettySize=auto;html=1;exitX=0.5;exitY=1;exitDx=0;exitDy=0;" parent="1" source="JyS4Pw6MhcOc_K2QIwF5-885" target="JyS4Pw6MhcOc_K2QIwF5-885" edge="1">
          <mxGeometry relative="1" as="geometry" />
        </mxCell>
        <mxCell id="JyS4Pw6MhcOc_K2QIwF5-911" style="rounded=0;orthogonalLoop=1;jettySize=auto;html=1;entryX=1;entryY=0;entryDx=0;entryDy=0;exitX=0.229;exitY=1.044;exitDx=0;exitDy=0;exitPerimeter=0;" parent="1" source="JyS4Pw6MhcOc_K2QIwF5-888" target="JyS4Pw6MhcOc_K2QIwF5-892" edge="1">
          <mxGeometry relative="1" as="geometry">
            <mxPoint x="170" y="480" as="sourcePoint" />
          </mxGeometry>
        </mxCell>
        <mxCell id="JyS4Pw6MhcOc_K2QIwF5-912" style="rounded=0;orthogonalLoop=1;jettySize=auto;html=1;" parent="1" source="JyS4Pw6MhcOc_K2QIwF5-888" target="JyS4Pw6MhcOc_K2QIwF5-891" edge="1">
          <mxGeometry relative="1" as="geometry">
            <mxPoint x="221" y="471" as="sourcePoint" />
            <mxPoint x="226" y="500" as="targetPoint" />
          </mxGeometry>
        </mxCell>
        <mxCell id="JyS4Pw6MhcOc_K2QIwF5-913" style="rounded=0;orthogonalLoop=1;jettySize=auto;html=1;exitX=0.5;exitY=0;exitDx=0;exitDy=0;entryX=0.686;entryY=1.002;entryDx=0;entryDy=0;entryPerimeter=0;" parent="1" source="JyS4Pw6MhcOc_K2QIwF5-888" target="JyS4Pw6MhcOc_K2QIwF5-890" edge="1">
          <mxGeometry relative="1" as="geometry" />
        </mxCell>
        <mxCell id="JyS4Pw6MhcOc_K2QIwF5-888" value="usersretailers" style="rounded=1;arcSize=10;whiteSpace=wrap;html=1;align=center;" parent="1" vertex="1">
          <mxGeometry x="179" y="360" width="100" height="40" as="geometry" />
        </mxCell>
        <mxCell id="JyS4Pw6MhcOc_K2QIwF5-889" value="username" style="ellipse;whiteSpace=wrap;html=1;align=center;" parent="1" vertex="1">
          <mxGeometry x="60" y="314" width="100" height="40" as="geometry" />
        </mxCell>
        <mxCell id="JyS4Pw6MhcOc_K2QIwF5-890" value="user_id" style="ellipse;whiteSpace=wrap;html=1;align=center;" parent="1" vertex="1">
          <mxGeometry x="150" y="284" width="100" height="40" as="geometry" />
        </mxCell>
        <mxCell id="JyS4Pw6MhcOc_K2QIwF5-891" value="userType" style="ellipse;whiteSpace=wrap;html=1;align=center;" parent="1" vertex="1">
          <mxGeometry x="250" y="294" width="100" height="40" as="geometry" />
        </mxCell>
        <mxCell id="JyS4Pw6MhcOc_K2QIwF5-892" value="shop_name" style="ellipse;whiteSpace=wrap;html=1;align=center;" parent="1" vertex="1">
          <mxGeometry x="70" y="414" width="100" height="40" as="geometry" />
        </mxCell>
        <mxCell id="JyS4Pw6MhcOc_K2QIwF5-893" value="email" style="ellipse;whiteSpace=wrap;html=1;align=center;" parent="1" vertex="1">
          <mxGeometry x="50" y="360" width="100" height="40" as="geometry" />
        </mxCell>
        <mxCell id="JyS4Pw6MhcOc_K2QIwF5-906" style="rounded=0;orthogonalLoop=1;jettySize=auto;html=1;exitX=1;exitY=0.75;exitDx=0;exitDy=0;entryX=0.03;entryY=0.302;entryDx=0;entryDy=0;entryPerimeter=0;" parent="1" source="JyS4Pw6MhcOc_K2QIwF5-863" target="JyS4Pw6MhcOc_K2QIwF5-885" edge="1">
          <mxGeometry relative="1" as="geometry" />
        </mxCell>
        <mxCell id="JyS4Pw6MhcOc_K2QIwF5-909" style="rounded=0;orthogonalLoop=1;jettySize=auto;html=1;exitX=0.304;exitY=-0.016;exitDx=0;exitDy=0;entryX=0.651;entryY=0.976;entryDx=0;entryDy=0;entryPerimeter=0;exitPerimeter=0;" parent="1" source="JyS4Pw6MhcOc_K2QIwF5-863" target="JyS4Pw6MhcOc_K2QIwF5-880" edge="1">
          <mxGeometry relative="1" as="geometry" />
        </mxCell>
        <mxCell id="JyS4Pw6MhcOc_K2QIwF5-914" style="rounded=0;orthogonalLoop=1;jettySize=auto;html=1;exitX=0;exitY=0.25;exitDx=0;exitDy=0;entryX=1.009;entryY=0.553;entryDx=0;entryDy=0;entryPerimeter=0;" parent="1" source="JyS4Pw6MhcOc_K2QIwF5-888" target="JyS4Pw6MhcOc_K2QIwF5-889" edge="1">
          <mxGeometry relative="1" as="geometry">
            <mxPoint x="123.70000000000005" y="434.4000000000001" as="targetPoint" />
          </mxGeometry>
        </mxCell>
        <mxCell id="JyS4Pw6MhcOc_K2QIwF5-915" style="rounded=0;orthogonalLoop=1;jettySize=auto;html=1;exitX=-0.008;exitY=0.57;exitDx=0;exitDy=0;entryX=1;entryY=0.5;entryDx=0;entryDy=0;exitPerimeter=0;" parent="1" source="JyS4Pw6MhcOc_K2QIwF5-888" target="JyS4Pw6MhcOc_K2QIwF5-893" edge="1">
          <mxGeometry relative="1" as="geometry" />
        </mxCell>
        <mxCell id="JyS4Pw6MhcOc_K2QIwF5-924" style="rounded=0;orthogonalLoop=1;jettySize=auto;html=1;exitX=0.5;exitY=1;exitDx=0;exitDy=0;" parent="1" source="JyS4Pw6MhcOc_K2QIwF5-916" target="JyS4Pw6MhcOc_K2QIwF5-920" edge="1">
          <mxGeometry relative="1" as="geometry" />
        </mxCell>
        <mxCell id="JyS4Pw6MhcOc_K2QIwF5-916" value="orders" style="rounded=1;arcSize=10;whiteSpace=wrap;html=1;align=center;" parent="1" vertex="1">
          <mxGeometry x="180" y="560" width="100" height="40" as="geometry" />
        </mxCell>
        <mxCell id="JyS4Pw6MhcOc_K2QIwF5-917" value="bill_details" style="ellipse;whiteSpace=wrap;html=1;align=center;" parent="1" vertex="1">
          <mxGeometry x="40" y="550" width="100" height="40" as="geometry" />
        </mxCell>
        <mxCell id="JyS4Pw6MhcOc_K2QIwF5-918" value="delivery_details" style="ellipse;whiteSpace=wrap;html=1;align=center;" parent="1" vertex="1">
          <mxGeometry x="40" y="600" width="100" height="40" as="geometry" />
        </mxCell>
        <mxCell id="JyS4Pw6MhcOc_K2QIwF5-919" value="packaged_by" style="ellipse;whiteSpace=wrap;html=1;align=center;" parent="1" vertex="1">
          <mxGeometry x="200" y="650" width="100" height="40" as="geometry" />
        </mxCell>
        <mxCell id="JyS4Pw6MhcOc_K2QIwF5-920" value="user_id" style="ellipse;whiteSpace=wrap;html=1;align=center;" parent="1" vertex="1">
          <mxGeometry x="100" y="640" width="100" height="40" as="geometry" />
        </mxCell>
        <mxCell id="JyS4Pw6MhcOc_K2QIwF5-921" value="order_id" style="ellipse;whiteSpace=wrap;html=1;align=center;" parent="1" vertex="1">
          <mxGeometry x="60" y="500" width="100" height="40" as="geometry" />
        </mxCell>
        <mxCell id="JyS4Pw6MhcOc_K2QIwF5-922" style="rounded=0;orthogonalLoop=1;jettySize=auto;html=1;exitX=0;exitY=0;exitDx=0;exitDy=0;entryX=0.932;entryY=0.721;entryDx=0;entryDy=0;entryPerimeter=0;" parent="1" source="JyS4Pw6MhcOc_K2QIwF5-916" target="JyS4Pw6MhcOc_K2QIwF5-921" edge="1">
          <mxGeometry relative="1" as="geometry" />
        </mxCell>
        <mxCell id="JyS4Pw6MhcOc_K2QIwF5-923" style="rounded=0;orthogonalLoop=1;jettySize=auto;html=1;exitX=0.75;exitY=1;exitDx=0;exitDy=0;entryX=0.377;entryY=0.04;entryDx=0;entryDy=0;entryPerimeter=0;" parent="1" source="JyS4Pw6MhcOc_K2QIwF5-916" target="JyS4Pw6MhcOc_K2QIwF5-919" edge="1">
          <mxGeometry relative="1" as="geometry" />
        </mxCell>
        <mxCell id="JyS4Pw6MhcOc_K2QIwF5-925" style="rounded=0;orthogonalLoop=1;jettySize=auto;html=1;exitX=0;exitY=1;exitDx=0;exitDy=0;" parent="1" source="JyS4Pw6MhcOc_K2QIwF5-916" target="JyS4Pw6MhcOc_K2QIwF5-918" edge="1">
          <mxGeometry relative="1" as="geometry" />
        </mxCell>
        <mxCell id="JyS4Pw6MhcOc_K2QIwF5-926" style="rounded=0;orthogonalLoop=1;jettySize=auto;html=1;exitX=0;exitY=0.5;exitDx=0;exitDy=0;entryX=0.991;entryY=0.438;entryDx=0;entryDy=0;entryPerimeter=0;" parent="1" source="JyS4Pw6MhcOc_K2QIwF5-916" target="JyS4Pw6MhcOc_K2QIwF5-917" edge="1">
          <mxGeometry relative="1" as="geometry">
            <mxPoint x="278.1103022912166" y="994.5535506840133" as="targetPoint" />
          </mxGeometry>
        </mxCell>
        <mxCell id="JyS4Pw6MhcOc_K2QIwF5-940" style="rounded=0;orthogonalLoop=1;jettySize=auto;html=1;exitX=1;exitY=0.25;exitDx=0;exitDy=0;entryX=0;entryY=0.5;entryDx=0;entryDy=0;" parent="1" source="JyS4Pw6MhcOc_K2QIwF5-930" target="JyS4Pw6MhcOc_K2QIwF5-933" edge="1">
          <mxGeometry relative="1" as="geometry" />
        </mxCell>
        <mxCell id="iq3WFOcKB-DzcSwy4FsD-3" style="rounded=0;orthogonalLoop=1;jettySize=auto;html=1;exitX=0.25;exitY=1;exitDx=0;exitDy=0;" parent="1" source="JyS4Pw6MhcOc_K2QIwF5-930" target="JyS4Pw6MhcOc_K2QIwF5-931" edge="1">
          <mxGeometry relative="1" as="geometry" />
        </mxCell>
        <mxCell id="iq3WFOcKB-DzcSwy4FsD-4" style="rounded=0;orthogonalLoop=1;jettySize=auto;html=1;exitX=1;exitY=0.75;exitDx=0;exitDy=0;" parent="1" source="JyS4Pw6MhcOc_K2QIwF5-930" target="JyS4Pw6MhcOc_K2QIwF5-934" edge="1">
          <mxGeometry relative="1" as="geometry" />
        </mxCell>
        <mxCell id="JyS4Pw6MhcOc_K2QIwF5-930" value="footwear_models" style="rounded=1;arcSize=10;whiteSpace=wrap;html=1;align=center;" parent="1" vertex="1">
          <mxGeometry x="400" y="560" width="100" height="40" as="geometry" />
        </mxCell>
        <mxCell id="JyS4Pw6MhcOc_K2QIwF5-931" value="image" style="ellipse;whiteSpace=wrap;html=1;align=center;" parent="1" vertex="1">
          <mxGeometry x="350" y="630" width="100" height="40" as="geometry" />
        </mxCell>
        <mxCell id="JyS4Pw6MhcOc_K2QIwF5-932" value="stock_quantity" style="ellipse;whiteSpace=wrap;html=1;align=center;" parent="1" vertex="1">
          <mxGeometry x="510" y="500" width="100" height="40" as="geometry" />
        </mxCell>
        <mxCell id="JyS4Pw6MhcOc_K2QIwF5-933" value="model_details" style="ellipse;whiteSpace=wrap;html=1;align=center;" parent="1" vertex="1">
          <mxGeometry x="530" y="550" width="100" height="40" as="geometry" />
        </mxCell>
        <mxCell id="JyS4Pw6MhcOc_K2QIwF5-934" value="brand" style="ellipse;whiteSpace=wrap;html=1;align=center;" parent="1" vertex="1">
          <mxGeometry x="530" y="598" width="100" height="40" as="geometry" />
        </mxCell>
        <mxCell id="JyS4Pw6MhcOc_K2QIwF5-935" value="model_id" style="ellipse;whiteSpace=wrap;html=1;align=center;" parent="1" vertex="1">
          <mxGeometry x="455" y="630" width="100" height="40" as="geometry" />
        </mxCell>
        <mxCell id="JyS4Pw6MhcOc_K2QIwF5-939" style="rounded=0;orthogonalLoop=1;jettySize=auto;html=1;exitX=0.75;exitY=0;exitDx=0;exitDy=0;entryX=0.118;entryY=0.813;entryDx=0;entryDy=0;entryPerimeter=0;" parent="1" source="JyS4Pw6MhcOc_K2QIwF5-930" target="JyS4Pw6MhcOc_K2QIwF5-932" edge="1">
          <mxGeometry relative="1" as="geometry" />
        </mxCell>
        <mxCell id="JyS4Pw6MhcOc_K2QIwF5-942" style="rounded=0;orthogonalLoop=1;jettySize=auto;html=1;exitX=0.5;exitY=1;exitDx=0;exitDy=0;entryX=0.4;entryY=0;entryDx=0;entryDy=0;entryPerimeter=0;" parent="1" source="JyS4Pw6MhcOc_K2QIwF5-930" target="JyS4Pw6MhcOc_K2QIwF5-935" edge="1">
          <mxGeometry relative="1" as="geometry">
            <Array as="points" />
          </mxGeometry>
        </mxCell>
        <mxCell id="iq3WFOcKB-DzcSwy4FsD-5" style="rounded=0;orthogonalLoop=1;jettySize=auto;html=1;exitX=0.75;exitY=0;exitDx=0;exitDy=0;entryX=0.459;entryY=0.994;entryDx=0;entryDy=0;entryPerimeter=0;" parent="1" source="JyS4Pw6MhcOc_K2QIwF5-863" target="JyS4Pw6MhcOc_K2QIwF5-884" edge="1">
          <mxGeometry relative="1" as="geometry" />
        </mxCell>
        <mxCell id="iq3WFOcKB-DzcSwy4FsD-12" value="" style="endArrow=none;html=1;rounded=0;entryX=0.5;entryY=1;entryDx=0;entryDy=0;exitX=0.5;exitY=0;exitDx=0;exitDy=0;" parent="1" source="iq3WFOcKB-DzcSwy4FsD-8" target="JyS4Pw6MhcOc_K2QIwF5-888" edge="1">
          <mxGeometry width="50" height="50" relative="1" as="geometry">
            <mxPoint x="190" y="500" as="sourcePoint" />
            <mxPoint x="240" y="450" as="targetPoint" />
          </mxGeometry>
        </mxCell>
        <mxCell id="iq3WFOcKB-DzcSwy4FsD-13" value="" style="endArrow=none;html=1;rounded=0;entryX=0.5;entryY=1;entryDx=0;entryDy=0;exitX=0.5;exitY=0;exitDx=0;exitDy=0;" parent="1" source="JyS4Pw6MhcOc_K2QIwF5-916" target="iq3WFOcKB-DzcSwy4FsD-8" edge="1">
          <mxGeometry width="50" height="50" relative="1" as="geometry">
            <mxPoint x="230" y="560" as="sourcePoint" />
            <mxPoint x="229" y="400" as="targetPoint" />
          </mxGeometry>
        </mxCell>
        <mxCell id="iq3WFOcKB-DzcSwy4FsD-8" value="places" style="rhombus;whiteSpace=wrap;html=1;" parent="1" vertex="1">
          <mxGeometry x="189" y="470" width="80" height="40" as="geometry" />
        </mxCell>
        <mxCell id="iq3WFOcKB-DzcSwy4FsD-17" value="" style="endArrow=none;html=1;rounded=0;entryX=1;entryY=1;entryDx=0;entryDy=0;exitX=0.199;exitY=-0.021;exitDx=0;exitDy=0;exitPerimeter=0;" parent="1" source="JyS4Pw6MhcOc_K2QIwF5-930" target="JyS4Pw6MhcOc_K2QIwF5-888" edge="1">
          <mxGeometry width="50" height="50" relative="1" as="geometry">
            <mxPoint x="340" y="510" as="sourcePoint" />
            <mxPoint x="390" y="460" as="targetPoint" />
            <Array as="points">
              <mxPoint x="420" y="520" />
              <mxPoint x="420" y="490" />
              <mxPoint x="280" y="490" />
            </Array>
          </mxGeometry>
        </mxCell>
        <mxCell id="iq3WFOcKB-DzcSwy4FsD-20" value="views" style="rhombus;whiteSpace=wrap;html=1;" parent="1" vertex="1">
          <mxGeometry x="310" y="474" width="80" height="33" as="geometry" />
        </mxCell>
        <mxCell id="iq3WFOcKB-DzcSwy4FsD-21" value="" style="endArrow=none;html=1;rounded=0;exitX=0.5;exitY=0;exitDx=0;exitDy=0;" parent="1" source="JyS4Pw6MhcOc_K2QIwF5-930" edge="1">
          <mxGeometry width="50" height="50" relative="1" as="geometry">
            <mxPoint x="310" y="500" as="sourcePoint" />
            <mxPoint x="450" y="400" as="targetPoint" />
          </mxGeometry>
        </mxCell>
        <mxCell id="iq3WFOcKB-DzcSwy4FsD-22" value="manages" style="rhombus;whiteSpace=wrap;html=1;" parent="1" vertex="1">
          <mxGeometry x="410" y="424" width="80" height="31" as="geometry" />
        </mxCell>
        <mxCell id="iq3WFOcKB-DzcSwy4FsD-24" value="" style="endArrow=none;html=1;rounded=0;exitX=0;exitY=0.5;exitDx=0;exitDy=0;entryX=1;entryY=0.5;entryDx=0;entryDy=0;" parent="1" source="iq3WFOcKB-DzcSwy4FsD-22" target="JyS4Pw6MhcOc_K2QIwF5-888" edge="1">
          <mxGeometry width="50" height="50" relative="1" as="geometry">
            <mxPoint x="370" y="540" as="sourcePoint" />
            <mxPoint x="370" y="380" as="targetPoint" />
            <Array as="points">
              <mxPoint x="340" y="440" />
              <mxPoint x="340" y="380" />
            </Array>
          </mxGeometry>
        </mxCell>
        <mxCell id="iq3WFOcKB-DzcSwy4FsD-25" value="" style="endArrow=none;html=1;rounded=0;" parent="1" edge="1">
          <mxGeometry width="50" height="50" relative="1" as="geometry">
            <mxPoint x="430" y="540" as="sourcePoint" />
            <mxPoint x="450" y="540" as="targetPoint" />
          </mxGeometry>
        </mxCell>
        <mxCell id="iq3WFOcKB-DzcSwy4FsD-26" value="" style="endArrow=none;html=1;rounded=0;exitX=0.797;exitY=-0.015;exitDx=0;exitDy=0;exitPerimeter=0;" parent="1" edge="1">
          <mxGeometry width="50" height="50" relative="1" as="geometry">
            <mxPoint x="257.7" y="559.4" as="sourcePoint" />
            <mxPoint x="410" y="540" as="targetPoint" />
            <Array as="points">
              <mxPoint x="258" y="540" />
            </Array>
          </mxGeometry>
        </mxCell>
        <mxCell id="iq3WFOcKB-DzcSwy4FsD-27" value="" style="endArrow=none;html=1;rounded=0;" parent="1" edge="1">
          <mxGeometry width="50" height="50" relative="1" as="geometry">
            <mxPoint x="410" y="530" as="sourcePoint" />
            <mxPoint x="430" y="530" as="targetPoint" />
          </mxGeometry>
        </mxCell>
        <mxCell id="iq3WFOcKB-DzcSwy4FsD-29" value="" style="endArrow=none;html=1;rounded=0;" parent="1" edge="1">
          <mxGeometry width="50" height="50" relative="1" as="geometry">
            <mxPoint x="430" y="540" as="sourcePoint" />
            <mxPoint x="430" y="530" as="targetPoint" />
          </mxGeometry>
        </mxCell>
        <mxCell id="iq3WFOcKB-DzcSwy4FsD-30" value="" style="endArrow=none;html=1;rounded=0;" parent="1" edge="1">
          <mxGeometry width="50" height="50" relative="1" as="geometry">
            <mxPoint x="410" y="540" as="sourcePoint" />
            <mxPoint x="410" y="530" as="targetPoint" />
          </mxGeometry>
        </mxCell>
        <mxCell id="SoMgfnPwOV5Ozq3IY5f0-1" value="1" style="text;strokeColor=none;align=center;fillColor=none;html=1;verticalAlign=middle;whiteSpace=wrap;rounded=0;" vertex="1" parent="1">
          <mxGeometry x="208" y="426" width="60" height="30" as="geometry" />
        </mxCell>
        <mxCell id="SoMgfnPwOV5Ozq3IY5f0-2" value="M" style="text;strokeColor=none;align=center;fillColor=none;html=1;verticalAlign=middle;whiteSpace=wrap;rounded=0;" vertex="1" parent="1">
          <mxGeometry x="189" y="520" width="60" height="30" as="geometry" />
        </mxCell>
        <mxCell id="SoMgfnPwOV5Ozq3IY5f0-3" value="1" style="text;strokeColor=none;align=center;fillColor=none;html=1;verticalAlign=middle;whiteSpace=wrap;rounded=0;" vertex="1" parent="1">
          <mxGeometry x="260" y="400" width="60" height="30" as="geometry" />
        </mxCell>
        <mxCell id="SoMgfnPwOV5Ozq3IY5f0-4" value="M" style="text;strokeColor=none;align=center;fillColor=none;html=1;verticalAlign=middle;whiteSpace=wrap;rounded=0;" vertex="1" parent="1">
          <mxGeometry x="379" y="486" width="60" height="30" as="geometry" />
        </mxCell>
        <mxCell id="SoMgfnPwOV5Ozq3IY5f0-5" value="1" style="text;strokeColor=none;align=center;fillColor=none;html=1;verticalAlign=middle;whiteSpace=wrap;rounded=0;" vertex="1" parent="1">
          <mxGeometry x="410" y="396" width="60" height="30" as="geometry" />
        </mxCell>
        <mxCell id="SoMgfnPwOV5Ozq3IY5f0-6" value="M" style="text;strokeColor=none;align=center;fillColor=none;html=1;verticalAlign=middle;whiteSpace=wrap;rounded=0;" vertex="1" parent="1">
          <mxGeometry x="280" y="535" width="60" height="30" as="geometry" />
        </mxCell>
        <mxCell id="SoMgfnPwOV5Ozq3IY5f0-7" value="M" style="text;strokeColor=none;align=center;fillColor=none;html=1;verticalAlign=middle;whiteSpace=wrap;rounded=0;" vertex="1" parent="1">
          <mxGeometry x="430" y="530" width="60" height="30" as="geometry" />
        </mxCell>
        <mxCell id="SoMgfnPwOV5Ozq3IY5f0-8" value="M" style="text;strokeColor=none;align=center;fillColor=none;html=1;verticalAlign=middle;whiteSpace=wrap;rounded=0;" vertex="1" parent="1">
          <mxGeometry x="319" y="400" width="60" height="30" as="geometry" />
        </mxCell>
      </root>
    </mxGraphModel>
  </diagram>
</mxfile>
